HIERARCHY
ROOT hip
{
	OFFSET 0.000000 0.000000 0.000000 
	CHANNELS 6 Xposition Yposition Zposition Xrotation Zrotation Yrotation
	JOINT abdomen
	{
		OFFSET 0.000000 3.402643 0.000000 
		CHANNELS 3 Xrotation Zrotation Yrotation
		JOINT chest
		{
			OFFSET 0.000000 8.438565 -0.680529 
			CHANNELS 3 Xrotation Zrotation Yrotation
			JOINT neck
			{
				OFFSET 0.000000 10.207942 -0.272212 
				CHANNELS 3 Xrotation Zrotation Yrotation
				JOINT head
				{
					OFFSET 0.000000 3.130431 0.000000 
					CHANNELS 3 Xrotation Zrotation Yrotation
					End Site
					{
						OFFSET 0.000000 3.130435 0.000000 
					}
				}
			}
			JOINT lCollar
			{
				OFFSET 3.470700 6.669187 -0.816635 
				CHANNELS 3 Yrotation Zrotation Xrotation
				JOINT lShldr
				{
					OFFSET 3.198488 0.000000 0.000000 
					CHANNELS 3 Zrotation Yrotation Xrotation
					JOINT lForeArm
					{
						OFFSET 10.139888 0.000000 0.000000 
						CHANNELS 3 Yrotation Zrotation Xrotation
						JOINT lHand
						{
							OFFSET 8.370511 0.000000 0.000000 
							CHANNELS 3 Zrotation Yrotation Xrotation
							End Site
							{
								OFFSET 4.083176 0.000000 0.000000 
							}
						}
					}
				}
			}
			JOINT rCollar
			{
				OFFSET -3.470700 6.669187 -0.816635 
				CHANNELS 3 Yrotation Zrotation Xrotation
				JOINT rShldr
				{
					OFFSET -3.198488 0.000000 0.000000 
					CHANNELS 3 Zrotation Yrotation Xrotation
					JOINT rForeArm
					{
						OFFSET -10.139888 0.000000 0.000000 
						CHANNELS 3 Yrotation Zrotation Xrotation
						JOINT rHand
						{
							OFFSET -8.370511 0.000000 0.000000 
							CHANNELS 3 Zrotation Yrotation Xrotation
							End Site
							{
								OFFSET -4.083176 0.000000 0.000000 
							}
						}
					}
				}
			}
		}
	}
	JOINT lThigh
	{
		OFFSET 5.308129 -1.633274 1.361059 
		CHANNELS 3 Xrotation Zrotation Yrotation
		JOINT lShin
		{
			OFFSET -2.041588 -20.007561 0.000000 
			CHANNELS 3 Xrotation Zrotation Yrotation
			JOINT lFoot
			{
				OFFSET 0.000000 -19.190928 -1.224953 
				CHANNELS 3 Xrotation Yrotation Zrotation
				End Site
				{
					OFFSET 0.000000 -2.449906 4.627600 
				}
			}
		}
	}
	JOINT rThigh
	{
		OFFSET -5.308129 -1.633274 1.361059 
		CHANNELS 3 Xrotation Zrotation Yrotation
		JOINT rShin
		{
			OFFSET 2.041588 -20.007561 0.000000 
			CHANNELS 3 Xrotation Zrotation Yrotation
			JOINT rFoot
			{
				OFFSET 0.000000 -19.190928 -1.224953 
				CHANNELS 3 Xrotation Yrotation Zrotation
				End Site
				{
					OFFSET 0.000000 -2.449906 4.627600 
				}
			}
		}
	}
}
MOTION
Frames: 9
Frame Time: 0.016667
-9.061032 46.989975 2.212285 5.334343 -12.197511 65.754700 49.290657 -7.777335 -0.021563 6.589766 -1.542991 14.475917 -17.643806 -1.281020 0.411037 -9.172071 3.462870 -62.199596 6.156107 -8.790596 -0.464293 -61.743908 8.070887 -24.094570 -139.447662 -5.000000 -40.176926 -33.866405 -17.838724 -12.671070 32.554108 -11.007988 0.579040 90.000000 27.190840 45.000000 57.948978 5.000000 9.394433 39.357754 -15.579886 29.942928 -58.074272 -7.780931 -39.999271 23.574358 -9.999794 -6.605609 4.014240 -23.370697 -20.503630 -0.102566 6.564723 -22.302816 48.945370 4.768806 5.965410 -51.103092 -15.183946 -5.836559 
-9.150893 46.752796 2.068253 5.304577 -12.437403 65.273544 49.387077 -7.453609 0.038056 6.596404 -1.552380 14.544254 -18.222734 -1.476473 0.490202 -9.780398 3.258443 -61.911068 6.310812 -8.975916 -0.473843 -61.502670 7.741951 -23.695429 -138.694244 -5.000000 -39.301712 -33.595757 -17.904579 -12.685058 32.522522 -10.944973 0.567423 90.000000 26.898188 45.000000 58.123470 5.000000 9.630262 39.404282 -15.858991 30.048676 -59.124775 -7.874101 -39.991074 25.092175 -9.998556 -7.101223 3.533761 -23.160662 -20.400949 -0.760642 6.395190 -22.594360 50.371765 4.566165 6.019477 -52.077812 -14.765819 -5.828746 
-9.236234 46.507889 1.923253 5.290760 -12.672971 64.835373 49.493679 -7.091315 0.095374 6.614347 -1.552125 14.602825 -18.831688 -1.670457 0.578785 -10.433368 3.028518 -61.553417 6.475500 -9.131982 -0.481879 -61.238335 7.329484 -23.210178 -137.929504 -5.000000 -38.402153 -33.357956 -18.010656 -12.851065 32.511879 -10.857203 0.562877 90.000000 26.655964 45.000000 58.275394 5.000000 9.779058 39.469185 -16.189268 30.140642 -60.220226 -8.031732 -39.997692 26.669472 -9.999837 -7.615641 2.967836 -22.983110 -20.337200 -1.431459 6.207734 -22.955240 51.816692 4.360739 6.040473 -53.032913 -14.362259 -5.811210 
-9.295140 46.250740 1.775040 5.234773 -12.803772 64.399277 49.628132 -6.693135 0.151715 6.636474 -1.532759 14.622353 -19.492348 -1.975903 0.714150 -11.104163 2.758266 -61.047466 6.629198 -9.424575 -0.498541 -60.880939 7.019105 -22.817997 -137.360809 -5.000000 -37.708916 -33.206161 -18.087687 -12.876896 32.560917 -10.715424 0.563894 90.000000 26.449245 44.928242 58.309925 5.000000 9.883787 39.509312 -16.522409 30.240482 -61.209698 -8.241633 -39.992931 28.330784 -9.998019 -8.114388 2.271135 -22.754097 -20.316936 -1.971548 5.926556 -23.196764 53.326923 4.272640 6.253349 -54.005180 -14.028130 -5.930670 
-9.314396 45.975243 1.622009 5.117392 -12.792229 63.964264 49.828644 -6.234443 0.215847 6.674342 -1.484682 14.583045 -20.226704 -2.439594 0.912987 -11.789949 2.421876 -60.323944 6.751896 -9.892703 -0.522694 -60.372402 6.861184 -22.587460 -137.046158 -5.000000 -37.284595 -33.176220 -18.106586 -12.722858 32.685951 -10.520381 0.553788 90.000000 26.289778 45.000000 58.181744 5.000000 9.905189 39.507236 -16.872032 30.359299 -62.005924 -8.577213 -39.993198 30.135420 -9.999720 -8.621891 1.377573 -22.340250 -20.326756 -2.350013 5.505332 -23.240812 54.936424 4.368454 6.797437 -55.049198 -13.775496 -6.308244 
-9.333648 45.699738 1.468976 5.009403 -12.779718 63.532475 50.038368 -5.778414 0.280515 6.712160 -1.436597 14.553514 -20.964247 -2.901760 1.121470 -12.477658 2.093886 -59.586338 6.876058 -10.369413 -0.537778 -59.869915 6.708423 -22.343317 -136.748077 -5.000000 -36.869854 -33.149216 -18.120405 -12.561103 32.820690 -10.315584 0.541421 90.000000 26.130360 45.000000 58.043495 5.000000 9.929151 39.508507 -17.232779 30.470911 -62.849747 -8.904264 -39.997818 31.930649 -9.999513 -9.111362 0.482516 -21.959450 -20.366756 -2.733139 5.106174 -23.310389 56.538712 4.417229 7.321708 -56.099346 -13.536253 -6.672997 
-9.251355 45.422695 1.354669 4.613516 -12.396811 62.698246 50.069138 -5.496542 0.389258 6.583982 -1.436399 14.631622 -21.123055 -3.255371 1.264776 -12.757371 1.804258 -58.767410 6.695375 -10.866772 -0.565221 -59.405666 6.595767 -22.143435 -136.270264 -5.000000 -36.396523 -33.443359 -17.926693 -12.233758 33.019295 -9.613424 0.505085 90.000000 26.071465 45.000000 57.676262 5.000000 10.220197 39.388611 -17.073397 30.329403 -63.163300 -9.032918 -39.995880 34.052197 -9.999829 -9.713564 -0.686537 -21.096998 -20.560795 -2.212701 4.724141 -22.917421 57.605175 4.651666 8.116095 -57.501476 -13.163848 -7.200312 
-9.169054 45.145657 1.240370 4.212279 -12.018970 61.874649 50.099552 -5.214618 0.499167 6.447608 -1.426562 14.699967 -21.283325 -3.608942 1.407594 -13.048506 1.524391 -57.952255 6.524317 -11.354379 -0.590362 -58.929527 6.487614 -21.931305 -135.793243 -5.000000 -35.924377 -33.734924 -17.728329 -11.921737 33.208614 -8.911262 0.467158 90.000000 26.020941 45.000000 57.298824 5.000000 10.515288 39.257214 -16.916059 30.200283 -63.461399 -9.153503 -39.995464 36.142853 -9.999001 -10.334822 -1.851083 -20.127296 -20.724621 -1.694363 4.352648 -22.526932 58.673927 4.856680 8.892099 -58.939350 -12.789099 -7.702018 
-8.977512 44.937313 1.205381 3.334498 -11.267538 60.520351 49.929512 -5.087950 0.702188 6.278800 -1.436001 14.758792 -20.911934 -3.903753 1.482401 -12.823343 1.461597 -57.314175 6.284448 -11.861485 -0.618470 -58.575462 6.304100 -21.669218 -134.847443 -5.000000 -35.147095 -33.439091 -17.786921 -11.659310 33.473877 -7.848258 0.410747 90.000000 26.199320 45.000000 56.486023 5.000000 11.021212 39.011322 -16.430220 30.239326 -63.041138 -8.929352 -39.988979 38.576237 -9.993064 -11.157104 -3.312217 -18.630243 -20.653835 -0.035939 4.196221 -21.891333 58.840309 5.034014 9.331901 -59.979401 -12.201988 -7.688114 
